<?xml version="1.0" encoding="utf-8"?>
<!DOCTYPE svg PUBLIC "-//W3C//DTD SVG 1.1//EN" "http://www.w3.org/Graphics/SVG/1.1/DTD/svg11.dtd">
<svg version="1.1" id="Layer_1" xmlns="http://www.w3.org/2000/svg" xmlns:xlink="http://www.w3.org/1999/xlink" x="0px" y="0px" viewBox="0 0 1537.2 357.7" enable-background="new 0 0 1537.2 357.7" xml:space="preserve">
    <g>
        <!--<use xlink:href="#SVGID_1_"  overflow="visible" fill="#000000"/>-->
        <path fill="#000000" d="M1024.8,36.5h-0.7V10.1c-0.5-2.7-3-4.7-6-4.8h-31.5c-3.5,0-6.2,2.4-6.5,5.6l0,172.5c0,3.3,2.7,5.9,6.1,6.1h33.8c3.6,0,6.6-2.7,6.7-6.2V90.5c0-11.6,0.6-22.1,5.3-32.7c3.8-8.4,11.4-13.8,19.7-13.8c23.5,0,21.2,27.6,21.2,46.4v93.6c0.4,2.9,2.9,5.2,6.1,5.4h34c3.4,0,6.2-2.4,6.5-5.4V75.7c0-16.7,0-39.9-8.9-53.6c-9.5-14.9-24.4-20.3-39.6-20.3C1047.6,1.7,1034.3,12.9,1024.8,36.5"/>

        <!--<use xlink:href="#SVGID_3_"  overflow="visible" fill="#000000"/>-->
        <path fill="#000000" d="M153.9,213.1v1.6c0.2,1.4,1,2.8,2.5,4.2c75.9,68.2,176.2,109.3,287.5,109.3c79.5,0,171.7-24.9,235.4-71.6c10.5-7.8,1.5-19.4-9.2-14.8c-71.4,30.1-148.9,44.7-219.5,44.7c-104.6,0-205.8-28.6-287.7-76c-1.5-0.9-2.9-1.2-4.1-1.2C156.1,209.2,154.2,210.9,153.9,213.1"/>

        <!--<use xlink:href="#SVGID_5_"  overflow="visible" fill="#000000"/>-->
        <path fill="#000000" d="M629.7,215.6c-2.3,1.6-3.5,3.4-3.7,4.9v1c0.3,1.8,2.1,3,5.2,2.6c20.5-2.4,66.2-7.9,74.3,2.5c8.1,10.3-9,53-16.7,72c-2.3,5.7,2.7,8.1,7.9,3.7c34.2-28.3,43-87.7,36-96.3c-3.3-4.1-19-7.9-38.4-7.9C673.5,198.1,648.5,202.4,629.7,215.6"/>

        <!--<use xlink:href="#SVGID_7_"  overflow="visible" fill="#000000"/>-->
        <path fill="#000000" d="M639,5.2c-3.4,0-6.3,2.5-6.3,6.2v24.7c0,3.7,2.9,6.2,6.4,6.2h58l-66.6,95.2c-4.1,6-4.2,12.9-4.2,16.9v25c0,3,2.7,6.3,5.8,6.3c0.7,0,1.4-0.2,2.1-0.5c18.5-9.8,38.7-14.3,58.6-14.3c20.8,0,41.2,5,58.8,14.1c0.8,0.4,1.6,0.6,2.4,0.6c3.2,0,5.8-3.3,5.8-6.3v-26.3c-0.3-3.6-1.5-7.2-5.9-9.6c-18.1-10.1-39.1-13.6-59.2-13.6c-1.4,0-2.8,0-4.1,0l57.6-81.8c5.3-7.3,8.4-12,8.4-15.5V11.4c0-3.7-2.8-6.2-6.4-6.2H639z"/>

        <!--<use xlink:href="#SVGID_9_"  overflow="visible" fill="#000000"/>-->
        <path fill="#000000" d="M320.5,33.6c-9.5-21.7-22.8-31.9-44.1-31.9c-20.9,0-36.5,10.2-44.7,31.9H231V11.1c-0.2-3.1-2.9-5.6-6.2-5.7h-31.6c-3.6,0-6.6,2.7-6.6,6.2v172.4c0.3,3.1,2.8,5.4,6,5.6h34c3.6,0,6.6-2.7,6.6-6.2V92c0-19.9-1-47.5,23.5-47.5c24.1,0,20.9,28.3,20.9,47.5l0,91.4c0,3.3,2.7,5.9,6.1,6.1h33.9c3.6,0,6.6-2.7,6.6-6.2l0-91.4c0-9.8-0.3-24.3,3.2-33c3.5-8.7,12-14.1,20.3-14.1c9.8,0,17.4,3.3,20,14.9c1.6,6.9,0.9,25,0.9,32.3v91.4c0,3.3,2.7,5.9,6.1,6.1h33.9c3.6,0,6.6-2.7,6.6-6.2V74.6c0-18.5,2.2-39.5-8.5-54.1c-9.5-13.1-25.1-18.9-39.3-18.9C347.4,1.7,328.7,11.8,320.5,33.6"/>

        <!--<use xlink:href="#SVGID_11_"  overflow="visible" fill="#000000"/>-->
        <path fill="#000000" d="M49.5,134c0-28.7,25.9-33.8,50.5-33.8v7.2c0,13.2,0.3,24.1-6.4,35.7c-5.4,9.4-14,15.3-23.5,15.3C57.1,158.4,49.5,148.6,49.5,134 M5.7,51.5c-0.9,4.2,2.3,6.4,5.1,7l32.8,3.6c3.1-0.2,5.3-3.2,5.9-6.2c2.8-13.7,14.3-20.2,27.3-20.2c7,0,14.9,2.5,19.1,8.7c4.7,6.9,4.1,16.4,4.1,24.4v4.4c-19.7,2.2-45.4,3.7-63.8,11.7C14.9,94,0,112.5,0,139.9c0,35,22.2,52.5,50.8,52.5c24.1,0,37.3-5.7,55.9-24.5c6.2,8.8,8.2,13.2,19.5,22.4c1.1,0.6,2.3,0.9,3.5,0.9c1.6,0,3.2-0.5,4.5-1.7l0.1,0.1c6.8-5.9,19.1-16.6,26-22.3c2.8-2.3,2.3-5.9,0.1-8.9c-6.2-8.5-12.8-15.4-12.8-31.2V74.7c0-22.2,1.6-42.6-14.9-57.9C119.7,4.4,98.1,0,81.6,0C49.3,0,13.3,12,5.7,51.5"/>

        <!--<use xlink:href="#SVGID_13_"  overflow="visible" fill="#000000"/>-->
        <path fill="#000000" d="M493.8,134c0-28.7,25.9-33.8,50.5-33.8v7.2c0,13.2,0.3,24.1-6.3,35.7c-5.4,9.4-14,15.3-23.5,15.3C501.5,158.4,493.8,148.6,493.8,134 M450.1,51.5c-0.8,4.2,2.3,6.4,5.1,7l32.9,3.6c3.1-0.2,5.3-3.2,5.9-6.2c2.8-13.7,14.3-20.2,27.3-20.2c7,0,14.9,2.5,19,8.7c4.7,6.9,4.1,16.4,4.1,24.4v4.4c-19.7,2.2-45.4,3.7-63.8,11.7c-21.3,9.1-36.2,27.7-36.2,55c0,35,22.2,52.5,50.8,52.5c24.1,0,37.3-5.7,55.9-24.5c6.2,8.8,8.2,13.2,19.4,22.4c1.1,0.6,2.3,0.9,3.5,0.9c1.6,0,3.2-0.5,4.5-1.7l0.1,0.1c6.8-5.9,19.1-16.6,26-22.3c2.7-2.3,2.3-5.9,0.1-8.9c-6.2-8.5-12.8-15.4-12.8-31.2V74.7c0-22.2,1.6-42.6-14.9-57.9C564,4.4,542.4,0,525.9,0C493.6,0,457.6,12,450.1,51.5"/>

        <path fill="#af1709" d="M861.8,0C808.4,0,765,43.1,765,96.2c0,53.1,43.3,96.2,96.8,96.2c53.5,0,96.8-43.1,96.8-96.2C958.7,43.1,915.3,0,861.8,0z M911.5,99.3l-74.8,35.6c-2.5,1.2-5.3-0.6-5.3-3.3V61.4c0-2.1,1.8-3.7,3.7-3.7c0.5,0,1.1,0.1,1.6,0.4l74.8,34.5C914.3,94,914.3,97.9,911.5,99.3z"/>

        <!--<use xlink:href="#SVGID_15_"  overflow="visible" fill="#000000"/>-->
        <path fill="#ffffff" d="M831.3,61.4v70.2c0,2.7,2.9,4.5,5.3,3.3l74.8-35.6c2.8-1.3,2.8-5.3,0-6.6l-74.8-34.5c-0.5-0.2-1.1-0.4-1.6-0.4C833.1,57.8,831.3,59.3,831.3,61.4"/>

        <!--<use xlink:href="#SVGID_17_"  overflow="visible" fill="#000000"/>-->
        <path fill="#000000" d="M895.9,254.7c-3.5,1.8-7.2,4.8-11.1,9.1l-1.7-6.9c-0.5-2.3-2.9-4.1-5.2-4.1h-9.3c-2.3,0-4.2,1.9-4.2,4.2v65.7c0,2.3,1.9,4.2,4.2,4.2h13.1c2.3,0,4.2-1.9,4.2-4.2v-48.1c5.5-2.2,11.4-3.3,17.7-3.3c3.3,0,5.1,0.4,5.1,0.4c2.2,0.3,4-1.3,4-3.5v-11.6c0-2.2-1.8-4.2-4-4.4c0,0,0-0.1-1.9-0.1C903.1,252.1,899.4,253,895.9,254.7 M800.6,309.5v-39c4.6-2.7,9.5-4,14.7-4c5.7,0,9.8,1.9,12.4,5.6c2.6,3.8,3.9,9.7,3.9,17.9c0,8.1-1.3,14-4,17.8c-2.6,3.8-6.8,5.6-12.4,5.6C809.9,313.5,805,312.2,800.6,309.5 M809.5,253.1c-4.2,1.7-7.8,3.9-10.7,6.7l-0.7-2.9c-0.6-2.3-2.9-4.1-5.3-4.1h-9.3c-2.3,0-4.2,1.9-4.2,4.2v96.4c0,2.3,1.8,4.2,4.1,4.2h13.3c2.3,0,4.1-1.9,4.1-4.2V322c2.6,2.2,5.7,4,9.3,5.3c3.7,1.3,7.5,1.9,11.5,1.9c6.3,0,11.9-1.7,16.7-5.2c4.8-3.5,8.5-8.2,11.1-14.3c2.6-6,3.8-12.9,3.8-20.6c0-11.8-2.8-21.2-8.4-28.1c-5.6-6.9-13.2-10.4-22.7-10.4C818,250.6,813.7,251.4,809.5,253.1 M1038.6,252.8c-4.4,1.5-9.1,3.8-14.1,7.1c-3.6-6.2-9.8-9.3-18.6-9.3c-4.4,0-8.7,0.7-12.8,2.1c-4.2,1.4-8.8,3.8-14,7.2l-0.8-3.1c-0.6-2.2-3-4.1-5.3-4.1h-9.3c-2.3,0-4.2,1.9-4.2,4.2v65.7c0,2.3,1.9,4.2,4.2,4.2h13.1c2.3,0,4.2-1.9,4.2-4.2v-51.9c5.3-2.6,10.7-3.9,16.1-3.9c6,0,8.9,3.3,8.9,9.9v46c0,2.3,1.9,4.2,4.2,4.2h13.1c2.3,0,4.2-1.9,4.2-4.2v-52c5.4-2.5,10.7-3.8,16-3.8c6,0,8.9,3.3,8.9,9.9v46c0,2.3,1.9,4.2,4.2,4.2h13.1c2.3,0,4.2-1.9,4.2-4.2v-50.6c0-6.8-1.9-12-5.6-15.8c-3.8-3.8-9.1-5.7-15.9-5.7C1047.5,250.6,1043,251.3,1038.6,252.8"/>

        <!--<use xlink:href="#SVGID_19_"  overflow="visible" fill="#000000"/>-->
        <path fill="#000000" d="M1110.3,269.6c2.9-2.8,6.7-4.3,11.7-4.3c8.6,0,12.9,4.7,12.9,14.2v2.5h-29.5C1105.8,276.6,1107.4,272.4,1110.3,269.6 M1095.2,261c-6.6,6.8-9.9,16.4-9.9,28.8c0,12.8,3.3,22.6,10,29.2c6.7,6.7,16.4,10,29.1,10c5.2,0,10.2-0.5,15.1-1.4c4.9-1,8.6-2.6,8.6-2.6c2.2-0.8,4-3.4,4-5.7v-5.6c0-2.3-1.9-3.8-4.1-3.4c0,0-12.6,2.8-19.3,2.8c-7.7,0-13.4-1.4-17-4.3c-3.6-2.8-5.6-7.4-6-13.8h42.4c2.4,0,4.6-1.9,5-4.2c0,0,0,0.2,0.3-2.5c0.3-2.7,0.5-5.1,0.5-7.2c0-9.7-2.7-17.2-8-22.5c-5.4-5.3-13-7.9-22.9-7.9C1111,250.7,1101.8,254.1,1095.2,261"/>

        <!--<use xlink:href="#SVGID_21_"  overflow="visible" fill="#000000"/>-->
        <path fill="#000000" d="M1241.4,252.6c-2.3,0-4.8,1.8-5.4,4l-15.3,51.3l-15-51.2c-0.7-2.3-3.1-4.1-5.4-4.1h-14.6c-2.3,0-3.5,1.8-2.7,3.9l25.8,66.5c0.8,2.2,3.4,3.9,5.8,3.9h12.2c2.3,0,4.9-1.8,5.8-3.9l25.7-66.5c0.8-2.2-0.4-3.9-2.7-3.9H1241.4z"/>

        <!--<use xlink:href="#SVGID_23_"  overflow="visible" fill="#000000"/>-->
        <path fill="#000000" d="M1270.7,252.6c-2.3,0-4.2,1.9-4.2,4.2v65.9c0,2.3,1.9,4.2,4.2,4.2h13c2.3,0,4.2-1.9,4.2-4.2v-65.9c0-2.3-1.9-4.2-4.2-4.2H1270.7z"/>

        <!--<use xlink:href="#SVGID_25_"  overflow="visible" fill="#000000"/>-->
        <path fill="#000000" d="M1268.8,222.5c-2.3,1.9-3.4,4.4-3.4,7.7c0,3.2,1.1,5.8,3.4,7.7c2.3,1.9,5.2,2.8,9,2.8s6.7-0.9,9-2.8c2.3-1.9,3.4-4.4,3.4-7.7c0-3.2-1.1-5.8-3.4-7.7c-2.3-1.9-5.2-2.8-9-2.8S1271.1,220.7,1268.8,222.5"/>

        <!--<use xlink:href="#SVGID_27_"  overflow="visible" fill="#000000"/>-->
        <path fill="#000000" d="M927.7,252.6c-2.3,0-4.2,1.9-4.2,4.2v65.9c0,2.3,1.9,4.2,4.2,4.2h13c2.3,0,4.2-1.9,4.2-4.2v-65.9c0-2.3-1.9-4.2-4.2-4.2H927.7z"/>

        <!--<use xlink:href="#SVGID_29_"  overflow="visible" fill="#000000"/>-->
        <path fill="#000000" d="M925.8,222.5c-2.3,1.9-3.4,4.4-3.4,7.7c0,3.2,1.1,5.8,3.4,7.7c2.3,1.9,5.2,2.8,9,2.8c3.7,0,6.7-0.9,9-2.8c2.3-1.9,3.4-4.4,3.4-7.7c0-3.2-1.1-5.8-3.4-7.7c-2.3-1.9-5.2-2.8-9-2.8C931.1,219.7,928.1,220.7,925.8,222.5"/>

        <!--<use xlink:href="#SVGID_31_"  overflow="visible" fill="#000000"/>-->
        <path fill="#000000" d="M1326.2,307.2c-2.7-3.8-4.1-9.6-4.1-17.3c0-7.8,1.3-13.6,3.9-17.4c2.6-3.8,6.5-5.7,11.8-5.7c5.6,0,10.5,1.2,14.9,3.6v38.4c-4.4,2.7-9,4.1-13.8,4.1C1333.2,312.8,1328.9,310.9,1326.2,307.2 M1356.9,219.6c-2.4,0-4.2,1.9-4.2,4.2v33.5c-5.8-4.4-12.7-6.5-20.5-6.5c-9.7,0-17.5,3.6-23.4,10.8c-5.9,7.2-8.8,16.8-8.8,28.9c0,7.9,1.3,14.7,4,20.5c2.7,5.8,6.4,10.3,11.2,13.3c4.8,3.1,10.3,4.6,16.6,4.6c8.5,0,15.8-2.7,22-8.1l0.7,2.5c0.6,2.2,3,4,5.3,4h10.6c2.3,0,4.2-1.9,4.2-4.2v-99.3c0-2.3-1.9-4.2-4.2-4.2H1356.9z"/>

        <!--<use xlink:href="#SVGID_33_"  overflow="visible" fill="#000000"/>-->
        <path fill="#000000" d="M1410.3,269.6c2.9-2.8,6.7-4.3,11.7-4.3c8.6,0,12.9,4.7,12.9,14.2v2.5h-29.5C1405.8,276.6,1407.4,272.4,1410.3,269.6 M1395.2,261c-6.6,6.8-9.9,16.4-9.9,28.8c0,12.8,3.3,22.6,10,29.2c6.7,6.7,16.4,10,29.1,10c5.2,0,10.2-0.5,15.1-1.4c4.9-1,8.6-2.6,8.6-2.6c2.2-0.8,4-3.4,4-5.7v-5.6c0-2.3-1.9-3.8-4.1-3.4c0,0-12.6,2.8-19.3,2.8c-7.7,0-13.4-1.4-17-4.3c-3.6-2.8-5.6-7.4-6-13.8h42.4c2.4,0,4.6-1.9,5-4.2c0,0,0,0.2,0.3-2.5c0.3-2.7,0.5-5.1,0.5-7.2c0-9.7-2.7-17.2-8-22.5c-5.4-5.3-13-7.9-22.9-7.9C1411,250.7,1401.8,254.1,1395.2,261"/>

        <!--<use xlink:href="#SVGID_35_"  overflow="visible" fill="#000000"/>-->
        <path fill="#000000" d="M1484.4,289.8c0-15.2,5.2-22.8,15.5-22.8s15.5,7.6,15.5,22.8c0,15.3-5.2,23-15.5,23S1484.4,305.1,1484.4,289.8 M1472.4,261.1c-6.6,6.9-9.9,16.5-9.9,28.7c0,12.3,3.3,22,9.9,28.9c6.6,6.9,15.7,10.3,27.5,10.3s20.9-3.4,27.5-10.3c6.6-6.9,9.9-16.5,9.9-28.9c0-12.2-3.3-21.8-9.9-28.7c-6.6-6.9-15.7-10.3-27.5-10.3S1479,254.2,1472.4,261.1"/>
    </g>
</svg>
