<?xml version="1.0" encoding="utf-8"?>
<!-- Generator: Adobe Illustrator 18.0.0, SVG Export Plug-In . SVG Version: 6.00 Build 0)  -->
<!DOCTYPE svg PUBLIC "-//W3C//DTD SVG 1.1//EN" "http://www.w3.org/Graphics/SVG/1.1/DTD/svg11.dtd">
<svg version="1.1" id="Layer_1" xmlns="http://www.w3.org/2000/svg" xmlns:xlink="http://www.w3.org/1999/xlink" x="0px" y="0px" viewBox="0 0 629.9 37.2" enable-background="new 0 0 629.9 37.2" xml:space="preserve">
<g>
	<path fill="#010101" d="M16,0.2h0.6l16.6,36.6h-7.8l-1.7-4.1H8.9l-1.7,4.1H0L16,0.2z M21,26.4l-2.6-6.3c-1.1-2.6-2.2-6.5-2.2-6.5s-1.1,3.9-2.1,6.5l-2.6,6.3H21z"/>
	<path fill="#010101" d="M48.8,0.1h0.6l17.9,19.6L84.8,0.1h0.6v36.6h-7.2V23.2c0-2.5,0.3-6.3,0.3-6.3s-2.2,3.2-3.9,5.1L67.4,30h-0.7l-7.2-8.1c-1.7-1.9-3.9-5.1-3.9-5.1s0.3,3.9,0.3,6.3v13.6h-7.1V0.1z"/>
	<path fill="#010101" d="M117,0.2h0.6l16.6,36.6h-7.8l-1.7-4.1h-14.7l-1.7,4.1H101L117,0.2z M122,26.4l-2.6-6.3c-1.1-2.6-2.2-6.5-2.2-6.5s-1.1,3.9-2.1,6.5l-2.6,6.3H122z"/>
	<path fill="#010101" d="M147.4,36.1L164.1,7h-13.7V0.5h25.2v0.6L159,30.2h15.7v6.6h-27.3V36.1z"/>
	<path fill="#010101" d="M188,18.6C188,7.9,196.3,0,206.8,0s18.8,7.9,18.8,18.6s-8.3,18.6-18.8,18.6S188,29.3,188,18.6z M217.9,18.6c0-6.8-4.5-11.9-11.1-11.9s-11.1,5.2-11.1,11.9s4.5,11.9,11.1,11.9S217.9,25.4,217.9,18.6z"/>
	<path fill="#010101" d="M253.4,19.9c-1.8-1.7-4.3-5-4.3-5s0.5,4,0.5,6.6v15.2h-7V0.2h0.7l18.3,17.2c1.8,1.7,4.3,5,4.3,5s-0.5-4.1-0.5-6.6V0.5h7v36.6h-0.7L253.4,19.9z"/>
	<path fill="#010101" d="M311.9,18.6c0-10.7,8.3-18.6,18.8-18.6s18.8,7.9,18.8,18.6s-8.3,18.6-18.8,18.6S311.9,29.3,311.9,18.6zM341.7,18.6c0-6.8-4.5-11.9-11.1-11.9s-11.1,5.2-11.1,11.9s4.5,11.9,11.1,11.9S341.7,25.4,341.7,18.6z"/>
	<path fill="#010101" d="M393.2,36.8h-8.6l-6-9.2c-0.7,0.1-1.4,0.2-2.1,0.2h-2.6v9h-7.5V0.5h10c10.1,0,16.2,4.9,16.2,13.7c0,5.7-2.5,9.2-7,11.3L393.2,36.8z M376.2,21.2c6.1,0,8.7-1.9,8.7-7S382.2,7,376.2,7h-2.3v14.2H376.2z"/>
	<path fill="#010101" d="M410,0.5h7.5v36.3H410V0.5z"/>
	<path fill="#010101" d="M434.6,18.6c0-10.7,7.6-18.6,18.5-18.6c5.9,0,10.2,1.6,13.2,5l-5.1,5c-1.8-1.9-3.9-3.3-8.1-3.3c-6.6,0-10.8,5.1-10.8,11.8s4.4,11.9,12,11.9c2.3,0,5.2-0.4,7.1-1.3v-5.3h-8.7v-6.6h15.6V33c-2.1,1.7-7.3,4.2-13.9,4.2C442.4,37.2,434.6,29.3,434.6,18.6z"/>
	<path fill="#010101" d="M486.1,0.5h7.5v36.3h-7.5V0.5z"/>
	<path fill="#010101" d="M522.7,19.9c-1.8-1.7-4.3-5-4.3-5s0.5,4,0.5,6.6v15.2h-7V0.2h0.7l18.3,17.2c1.8,1.7,4.3,5,4.3,5s-0.5-4.1-0.5-6.6V0.5h7v36.6h-0.7L522.7,19.9z"/>
	<path fill="#010101" d="M573.2,0.2h0.6l16.6,36.6h-7.8l-1.7-4.1h-14.7l-1.7,4.1h-7.2L573.2,0.2z M578.2,26.4l-2.6-6.3c-1.1-2.6-2.2-6.5-2.2-6.5s-1.1,3.9-2.1,6.5l-2.6,6.3H578.2z"/>
	<path fill="#010101" d="M606,0.5h7.5v29.7h16.4v6.6H606V0.5z"/>
</g>
</svg>
